<svg xmlns="http://www.w3.org/2000/svg" viewBox="0 0 14.06 13.8"><defs><style>.cls-1,.cls-2,.cls-3{fill:#fff;}.cls-1,.cls-2{fill-rule:evenodd;isolation:isolate;}.cls-1{opacity:0.65;}.cls-2{opacity:0.65;}</style></defs><title>watermark</title><g id="Capa_2" data-name="Capa 2"><g id="Capa_1-2" data-name="Capa 1"><path class="cls-1" d="M0,9.24V4.56H4.67A5.27,5.27,0,0,1,0,9.24"/><path class="cls-2" d="M14.06,4.56V9.24H9.39a5.28,5.28,0,0,1,4.67-4.68"/><path class="cls-3" d="M.15,9.24H0A5.15,5.15,0,0,0,4.58,4c0-.19.09-4,.09-4H9.39A9.23,9.23,0,0,1,.15,9.24"/><path class="cls-3" d="M13.91,4.56h.15A5.16,5.16,0,0,0,9.48,9.78c0,.19-.09,4-.09,4H4.67a9.24,9.24,0,0,1,9.24-9.24"/></g></g></svg>